<?xml version="1.0" standalone="no"?>
<!DOCTYPE svg PUBLIC "-//W3C//DTD SVG 20010904//EN"
 "http://www.w3.org/TR/2001/REC-SVG-20010904/DTD/svg10.dtd">
<svg version="1.0" xmlns="http://www.w3.org/2000/svg"
 width="626.000000pt" height="626.000000pt" viewBox="0 0 626.000000 626.000000"
 preserveAspectRatio="xMidYMid meet">

<g transform="translate(0.000000,626.000000) scale(0.100000,-0.100000)"
fill="#000000" stroke="none">
<path d="M2905 5428 c-44 -5 -131 -20 -194 -34 -774 -173 -1363 -794 -1499
-1579 -13 -76 -17 -155 -17 -335 1 -216 3 -245 28 -363 66 -308 178 -559 355
-796 66 -88 251 -282 311 -326 22 -16 41 -36 41 -42 0 -7 5 -13 12 -13 6 0 55
-29 108 -65 611 -411 1428 -435 2063 -61 449 264 775 696 902 1194 78 310 78
665 0 967 -147 564 -528 1027 -1048 1275 -328 156 -703 219 -1062 178z m476
-53 c116 -15 243 -43 329 -73 53 -18 55 -20 62 -62 4 -24 16 -60 26 -81 l19
-37 -30 -6 c-16 -3 -54 -6 -84 -6 -135 0 -413 -59 -565 -119 l-71 -28 -71 18
c-158 41 -227 51 -429 59 -114 4 -210 10 -213 12 -2 3 -7 42 -11 86 l-6 81 49
22 c136 59 369 121 520 138 114 14 362 12 475 -4z m-1048 -241 c3 -42 4 -81 1
-87 -2 -7 -21 -23 -41 -37 -67 -46 -369 -431 -421 -537 -20 -41 -30 -52 -44
-47 -13 4 -16 1 -12 -10 4 -11 0 -16 -11 -16 -45 0 -250 -154 -403 -304 l-102
-100 15 51 c120 405 399 779 762 1024 70 48 230 138 244 139 3 0 9 -34 12 -76z
m1649 -95 c130 -79 329 -220 392 -279 61 -57 69 -75 97 -235 17 -101 23 -170
23 -310 0 -99 -3 -197 -7 -217 -7 -34 -12 -39 -50 -48 -39 -10 -474 -148 -595
-190 -48 -16 -53 -16 -61 -2 -8 14 -11 12 -16 -11 -7 -28 -8 -27 -114 75 -155
152 -306 260 -478 347 l-83 41 0 82 c0 45 -5 109 -11 143 -8 47 -7 105 5 247
9 102 21 208 27 236 l11 51 107 35 c179 58 381 91 574 95 l78 1 101 -61z m504
-406 c-7 -7 -26 7 -26 19 0 6 6 6 15 -2 9 -7 13 -15 11 -17z m232 -97 c143
-216 250 -494 293 -761 15 -88 19 -433 6 -506 l-8 -46 -47 2 c-26 1 -72 2
-103 3 l-56 2 -17 88 c-9 48 -29 123 -43 166 -31 96 -135 302 -195 387 l-43
62 3 211 c2 152 -1 244 -13 330 -9 66 -12 123 -8 127 12 12 81 27 129 28 40 1
40 1 102 -93z m-2798 -258 c181 -246 220 -295 275 -351 l58 -59 -27 -86 c-58
-190 -91 -462 -79 -645 l6 -93 -69 -50 c-173 -126 -324 -224 -345 -224 -5 0
-23 -9 -38 -21 -26 -19 -31 -20 -55 -7 -65 34 -243 272 -351 468 l-57 105 -1
180 c0 172 14 308 44 418 20 75 387 413 469 434 14 3 36 14 50 24 14 10 28 19
31 19 4 0 44 -51 89 -112z m1221 -116 c202 -101 381 -233 532 -392 l87 -91 0
-87 c0 -48 -11 -148 -24 -222 -13 -74 -32 -215 -42 -313 l-19 -179 -75 -50
c-180 -119 -445 -225 -668 -268 -128 -24 -106 -30 -279 75 -129 80 -277 193
-391 300 l-90 85 -8 108 c-13 189 18 449 77 649 16 53 28 77 41 81 10 2 18 10
18 17 0 23 184 134 330 199 80 35 165 73 190 84 35 16 172 58 200 61 3 1 57
-25 121 -57z m-1732 -1170 c34 -49 99 -134 145 -187 65 -76 90 -115 116 -179
63 -156 199 -402 297 -539 33 -47 34 -50 17 -68 -16 -18 -18 -17 -68 24 -189
155 -369 384 -484 613 -79 157 -159 410 -176 554 l-6 55 49 -92 c27 -50 76
-131 110 -181z m3595 186 c-53 -291 -178 -581 -354 -816 -126 -168 -352 -382
-404 -382 -29 0 -69 38 -63 60 3 8 21 69 41 135 21 66 45 168 55 226 l18 106
188 244 c103 134 224 292 268 352 l80 107 88 0 89 0 -6 -32z m-1314 -338 c5 9
42 -4 133 -48 130 -62 244 -133 357 -223 l65 -52 -3 -56 c-6 -96 -81 -429
-107 -470 -10 -17 -171 -110 -277 -161 -124 -59 -271 -108 -429 -144 l-116
-26 -84 29 c-182 62 -395 170 -426 217 -8 13 -22 24 -29 24 -8 0 -14 2 -14 5
0 31 57 275 84 363 20 63 36 122 36 132 0 9 10 24 22 32 21 14 21 14 -13 36
-38 24 -45 21 100 52 58 12 146 35 195 52 111 37 326 140 421 201 39 26 72 41
74 35 2 -7 6 -6 11 2z m-1567 -851 c50 -26 135 -56 217 -77 122 -32 150 -35
291 -38 150 -2 159 -4 198 -29 118 -74 392 -193 484 -210 61 -12 51 -22 -30
-29 -329 -27 -665 36 -973 185 -114 55 -320 181 -320 196 0 10 32 43 42 43 5
0 45 -19 91 -41z"/>
<path d="M2430 1180 c-645 -36 -1046 -108 -1018 -182 25 -64 366 -122 943
-160 296 -20 1317 -16 1625 5 736 52 1043 141 772 225 -129 40 -333 69 -697
98 -232 19 -1364 28 -1625 14z"/>
</g>
</svg>
