<svg width="200" height="200" viewBox="0 0 200 200" fill="none" xmlns="http://www.w3.org/2000/svg">
<path d="M100.013 6.09799C63.4007 6.09799 33.6147 35.8843 33.6147 72.4969C33.6147 96.896 46.7435 118.999 68.0274 130.696V147.678H68.0133V161.247H67.9942V181.829H87.1811C87.5789 188.553 93.1726 193.902 99.9939 193.902C106.815 193.902 112.409 188.553 112.806 181.829H131.981V168.26H132V147.678H131.998V130.696C153.282 118.999 166.411 96.8959 166.411 72.4969C166.411 35.8843 136.625 6.09799 100.013 6.09799ZM75.0263 154.691H124.987V161.247H75.0263V154.691ZM99.9939 186.889C96.7226 186.889 94.5909 184.388 94.2299 181.829H105.762C105.385 184.68 102.945 186.889 99.9939 186.889ZM124.968 174.816H75.0072V168.26H124.968V174.816ZM126.902 125.459L124.985 126.434V147.485H103.507V95.6667L124.307 74.8655C125.676 73.4963 125.676 71.2764 124.306 69.9067C122.938 68.538 120.717 68.5374 119.348 69.9071L100 89.2554L80.653 69.9072C79.2837 68.538 77.0633 68.5374 75.6941 69.9068C74.3243 71.2766 74.3243 73.4964 75.6935 74.8657L96.4936 95.6667V147.485H75.0404V126.434L73.1239 125.459C53.0794 115.262 40.6277 94.9672 40.6277 72.4969C40.6277 39.7513 67.2679 13.1112 100.013 13.1112C132.758 13.1112 159.398 39.7513 159.398 72.4969C159.398 94.9672 146.946 115.262 126.902 125.459Z" fill="#5C4F01"/>
<path d="M118.519 27.3583C116.582 27.3583 115.012 28.9281 115.012 30.8649C115.012 32.8017 116.582 34.3713 118.519 34.3713C124.034 34.3713 136.962 40.9973 136.962 53.8468C136.962 55.7835 138.532 57.3533 140.468 57.3533C142.405 57.3533 143.975 55.7835 143.975 53.8468C143.975 36.4557 127.403 27.3583 118.519 27.3583Z" fill="#5C4F01"/>
<path d="M23.2591 79.209C23.2591 77.2723 21.6893 75.7025 19.7527 75.7025H3.8541C1.91743 75.7025 0.347656 77.2723 0.347656 79.209C0.347656 81.1457 1.91743 82.7154 3.8541 82.7154H19.7527C21.6893 82.7154 23.2591 81.1458 23.2591 79.209Z" fill="#5C4F01"/>
<path d="M24.4621 33.344C25.147 34.0288 26.0442 34.3712 26.9418 34.3712C27.839 34.3712 28.7365 34.0288 29.421 33.3444C30.7908 31.9747 30.7908 29.7548 29.4214 28.3857L18.1805 17.1441C16.8119 15.7753 14.5913 15.7749 13.2216 17.1437C11.852 18.5133 11.852 20.7333 13.2212 22.1025L24.4621 33.344Z" fill="#5C4F01"/>
<path d="M24.4636 125.074L13.2216 136.315C11.852 137.685 11.852 139.905 13.2212 141.274C13.9061 141.959 14.8032 142.302 15.7009 142.302C16.598 142.302 17.4956 141.959 18.18 141.274L29.4221 130.033C30.7918 128.663 30.7918 126.443 29.4225 125.075C28.0534 123.705 25.8329 123.705 24.4636 125.074Z" fill="#5C4F01"/>
<path d="M196.146 75.7025H180.248C178.311 75.7025 176.741 77.2723 176.741 79.209C176.741 81.1457 178.311 82.7154 180.248 82.7154H196.146C198.083 82.7154 199.652 81.1457 199.652 79.209C199.652 77.2723 198.083 75.7025 196.146 75.7025Z" fill="#5C4F01"/>
<path d="M173.058 34.3712C173.955 34.3712 174.853 34.0288 175.538 33.3444L186.779 22.103C188.148 20.7333 188.148 18.5133 186.779 17.1437C185.409 15.7749 183.189 15.7749 181.82 17.1437L170.578 28.3851C169.209 29.7549 169.209 31.9748 170.578 33.3444C171.263 34.0288 172.161 34.3712 173.058 34.3712Z" fill="#5C4F01"/>
<path d="M175.537 125.074C174.168 123.705 171.947 123.705 170.578 125.075C169.208 126.443 169.208 128.663 170.578 130.033L181.82 141.274C182.505 141.959 183.402 142.302 184.299 142.302C185.197 142.302 186.094 141.959 186.779 141.274C188.148 139.905 188.148 137.685 186.779 136.315L175.537 125.074Z" fill="#5C4F01"/>
</svg>
