<svg width="200" height="200" viewBox="0 0 200 200" fill="none" xmlns="http://www.w3.org/2000/svg">
<path d="M175.831 0H11.6625C5.23125 0 0 5.60938 0 12.5V134.375C0 136.103 2.60937 137.5 5.83125 137.5C9.05312 137.5 11.6625 136.103 11.6625 134.375V130.894L17.5469 124.622L26.6906 134.375H38.8844L48.0281 124.622L57.1719 134.375H69.3656L78.5094 124.622L84.475 130.984C82.3396 136.01 81.2416 141.415 81.2469 146.875C81.2469 169.312 99.4344 187.5 121.872 187.5C144.309 187.5 162.497 169.312 162.497 146.875C162.497 142.512 161.791 138.316 160.516 134.375H160.809L169.953 124.622L175.831 130.884V134.375C175.831 136.103 178.441 137.5 181.666 137.5C184.887 137.5 187.5 136.103 187.5 134.375V12.5C187.5 5.60938 182.266 0 175.831 0ZM171.425 12.5L169.95 14.0719L168.478 12.5H171.425ZM153.141 12.5H156.291L163.866 20.575L154.716 30.3281L145.572 20.575L153.141 12.5ZM99.8469 101.866L108.991 92.1125L118.134 101.866L113.112 107.225C110.933 107.706 108.796 108.367 106.725 109.2L99.8469 101.866ZM85.8156 147.447C85.3865 148.558 85.0896 149.716 84.9313 150.897C84.6575 148.053 84.669 145.189 84.9656 142.347C85.0746 144.071 85.3594 145.78 85.8156 147.447ZM124.934 110.397C123.934 111.728 122.903 113.709 122.419 114.681C120.375 115.016 112.606 116.5 106.516 120.45C105.284 120.125 101.581 119.256 98.0687 119.559C98.9344 117.875 100.237 116.628 100.378 116.5C100.859 116.153 110.162 109.65 121.459 109.791V109.809C122.463 109.881 123.928 110.097 124.934 110.397ZM149.137 129.253C147.159 128.241 142.181 126.072 135.356 125.706C134.328 124.184 130.441 118.869 124.306 115.181C125.147 113.538 126.316 111.531 126.994 110.922C127.216 110.859 127.562 110.803 128.087 110.803C131.378 110.803 137.059 112.956 137.559 113.15C138.081 113.428 148.297 118.931 150.291 124.191C150.275 124.778 150.134 126.863 149.137 129.253ZM154.256 146.413C151.978 153.503 147.472 158.281 146.325 159.406C141.668 159.181 137.041 158.543 132.497 157.5C131.262 153.2 127.191 142.597 126.259 140.188C129.223 135.965 132.23 131.775 135.281 127.616C142.691 128.025 147.884 130.725 148.894 131.291C153.188 138.188 154.122 145.234 154.256 146.413ZM87.5219 133.441C89.1562 130.516 93.8156 123.063 96.8844 121.65C100.072 121 104.041 121.806 105.653 122.2C105.5 124.306 105.209 130.181 106.084 136.344C102.556 139.178 96.9812 147.344 95.5375 149.497C91.0812 148.738 88.4313 147.35 87.6375 146.881C85.9813 140.869 87.3125 134.372 87.5219 133.441ZM107.35 137.769C113.064 138.819 118.78 139.863 124.497 140.9C125.425 143.309 129.509 153.959 130.681 158.066C129.394 159.591 124.331 165.491 119.344 170.109C114.05 170.134 105.044 167.081 103.331 166.478C99.5938 160.438 97.4687 152.541 97.0125 150.728C98.1906 148.956 104.022 140.356 107.35 137.769ZM102.844 168.328C104.966 169.075 113.681 172.028 119.241 172.028C120.184 173.294 123.281 177.272 127.075 180.306C124.713 182.619 121.303 183.713 120.7 183.891C110.119 184.175 99.8125 178.225 97.525 172.756C99.4844 170.869 101.906 169.028 102.844 168.328ZM128.959 181.091C130.644 180.863 137.891 179.609 144.441 174.797C144.872 174.85 145.584 174.903 146.378 174.878C142.45 178.731 132.866 183.028 125.472 183.872C126.773 183.134 127.95 182.195 128.959 181.091ZM145.55 172.972C147.903 166.841 147.803 162.222 147.688 160.744C148.981 159.481 153.413 154.756 155.872 147.575C157.197 147.794 158.059 148.134 158.469 148.322C158.613 148.841 158.85 150.047 158.709 151.872C157.712 158.438 154.247 168.275 148.184 172.628C147.581 172.938 146.506 173.006 145.55 172.972ZM115.087 85.6094L124.231 75.8562L133.375 85.6094L124.231 95.3625L115.087 85.6094ZM108.991 79.1031L99.8469 69.35L108.991 59.5969L118.134 69.35L108.991 79.1031ZM130.331 69.35L139.475 59.5969L148.616 69.35L139.475 79.1031L130.331 69.35ZM130.331 36.8312L139.475 27.0781L148.616 36.8312L139.475 46.5844L130.331 36.8312ZM133.375 53.0969L124.231 62.85L115.087 53.0969L124.231 43.3344L133.375 53.0969ZM108.991 46.5844L99.8469 36.8312L108.991 27.0781L118.134 36.8312L108.991 46.5844ZM102.894 53.0969L93.75 62.85L84.6062 53.0969L93.75 43.3344L102.894 53.0969ZM78.5094 46.5844L69.3656 36.8312L78.5094 27.0781L87.6531 36.8312L78.5094 46.5844ZM72.4125 53.0969L63.2687 62.85L54.125 53.0969L63.2687 43.3344L72.4125 53.0969ZM48.0281 46.5844L38.8844 36.8312L48.0281 27.0781L57.1719 36.8312L48.0281 46.5844ZM41.9313 53.0969L32.7875 62.85L23.6437 53.0969L32.7875 43.3344L41.9313 53.0969ZM41.9313 85.6094L32.7875 95.3625L23.6437 85.6094L32.7875 75.8562L41.9313 85.6094ZM38.8844 69.35L48.0281 59.5969L57.1719 69.35L48.0281 79.1031L38.8844 69.35ZM63.2687 75.8531L72.4125 85.6062L63.2687 95.3594L54.125 85.6062L63.2687 75.8531ZM69.3656 69.35L78.5094 59.5969L87.6531 69.35L78.5094 79.1031L69.3656 69.35ZM93.75 75.8531L102.894 85.6062L93.75 95.3625L84.6062 85.6094L93.75 75.8531ZM137.306 109.303L130.334 101.866L139.478 92.1125L148.619 101.866L140.328 110.713C139.34 110.204 138.331 109.733 137.306 109.303ZM145.572 85.6094L154.716 75.8562L163.866 85.6094L154.716 95.3625L145.572 85.6094ZM145.572 53.0969L154.716 43.3344L163.866 53.0969L154.716 62.85L145.572 53.0969ZM140.95 12.5L139.475 14.0719L138 12.5H140.95ZM122.659 12.5H125.803L133.375 20.575L124.231 30.3281L115.087 20.575L122.659 12.5ZM110.466 12.5L108.991 14.0719L107.516 12.5H110.466ZM92.1781 12.5H95.3219L102.894 20.575L93.75 30.3281L84.6062 20.575L92.1781 12.5ZM79.9844 12.5L78.5094 14.0719L77.0344 12.5H79.9844ZM61.6969 12.5H64.8406L72.4125 20.575L63.2687 30.3281L54.125 20.575L61.6969 12.5ZM49.5031 12.5L48.0281 14.0719L46.5531 12.5H49.5031ZM31.2156 12.5H34.3594L41.9313 20.575L32.7875 30.3281L23.6437 20.575L31.2156 12.5ZM19.0188 12.5L17.5469 14.0719L16.075 12.5H19.0188ZM11.6625 33.35L17.5469 27.0781L26.6906 36.8312L17.5469 46.5844L11.6625 40.3125V33.35ZM11.6625 65.8687L17.5469 59.5969L26.6906 69.35L17.5469 79.1031L11.6625 72.8313V65.8687ZM11.6625 105.347V98.3812L17.5469 92.1094L26.6906 101.863L17.5469 111.616L11.6625 105.347ZM32.7875 127.872L23.6437 118.119L32.7875 108.366L41.9313 118.119L32.7875 127.872ZM38.8844 101.866L48.0281 92.1125L57.1719 101.866L48.0281 111.619L38.8844 101.866ZM63.2687 127.872L54.125 118.119L63.2687 108.366L72.4125 118.119L63.2687 127.872ZM69.3656 101.866L78.5094 92.1125L87.6531 101.866L78.5094 111.619L69.3656 101.866ZM84.6062 118.119L93.75 108.366L98.6344 113.578C94.9686 116.15 91.7507 119.306 89.1094 122.922L84.6062 118.119ZM156.594 125.866C154.268 122.007 151.318 118.56 147.866 115.666L154.712 108.362L163.863 118.116L156.594 125.866ZM175.831 105.353L169.953 111.619L160.809 101.866L169.953 92.1125L175.831 98.3781V105.353ZM175.831 72.8406L169.953 79.1062L160.809 69.3531L169.953 59.6L175.831 65.8656V72.8406ZM175.831 40.3188L169.953 46.5844L160.809 36.8312L169.953 27.0781L175.831 33.3438V40.3188Z" fill="#E0F122"/>
</svg>
